#!OML:ASF H:\Pregnant\Project 1\Capture day 1\Session 1\femalepreg.ASF
:FULLY-SPECIFIED
:DEGREES
1423
root 10.1344 15.7463 5.7398 20.1987 -14.7944 -4.99439
lowerback -21.0665 0.598783 1.28076
upperback -6.44873 0.356919 1.48108
thorax 4.75875 0.153766 0.94188
lowerneck -22.681 2.88239 4.00485
upperneck 27.2557 1.88661 2.18491
head 12.9321 1.5543 0.502537
rclavicle 4.09993e-016 -1.05356e-014
rhumerus -38.9769 -7.26361 -74.9693
rradius 28.8786
rwrist 0.131
rhand -15.0635 -14.5914
rfingers 7.12502
rthumb 11.1035 -44.2777
lclavicle 4.09993e-016 -1.05356e-014
lhumerus -41.5904 -18.0497 91.5439
lradius 28.2891
lwrist 46.6414
lhand -30.7848 -3.29604
lfingers 7.12502
lthumb -4.07533 26.6447
rfemur -39.5892 16.7808 19.8127
rtibia 36.4264
rfoot -12.7745 -2.81159
rtoes -9.04267
lfemur -16.5557 -10.39 -18.5171
ltibia 18.6555
lfoot -14.1662 13.3502
ltoes -29.1653
1424
root 10.1354 15.7464 5.73928 20.1946 -14.7593 -4.98755
lowerback -21.0808 0.605621 1.29753
upperback -6.46836 0.362422 1.47965
thorax 4.74495 0.156367 0.932159
lowerneck -22.7174 2.91482 4.04019
upperneck 27.232 1.92019 2.18006
head 12.9309 1.57211 0.501001
rclavicle -3.72721e-015 3.97569e-015
rhumerus -38.8792 -7.02795 -75.1558
rradius 29.0913
rwrist 0.0210406
rhand -15.064 -14.6231
rfingers 7.12502
rthumb 11.103 -44.3094
lclavicle -3.72721e-015 3.97569e-015
lhumerus -41.3901 -17.9131 91.4613
lradius 28.3821
lwrist 46.5545
lhand -30.8861 -3.23828
lfingers 7.12502
lthumb -4.1732 26.7006
rfemur -39.5857 16.7808 19.8014
rtibia 36.4281
rfoot -12.7703 -2.85249
rtoes -9.09299
lfemur -16.564 -10.3846 -18.5196
ltibia 18.6531
lfoot -14.1811 13.3054
ltoes -29.1773
1425
root 10.1363 15.7466 5.73897 20.1931 -14.7236 -4.98246
lowerback -21.0976 0.615213 1.32161
upperback -6.48714 0.370285 1.47282
thorax 4.73346 0.160094 0.9131
lowerneck -22.7711 2.95087 4.09124
upperneck 27.2135 1.95437 2.16714
head 12.9357 1.59082 0.49421
rclavicle 2.13072e-014 -3.77691e-015
rhumerus -38.7799 -6.78866 -75.3565
rradius 29.3178
rwrist -0.109296
rhand -15.0531 -14.6754
rfingers 7.12502
rthumb 11.1136 -44.3611
lclavicle 2.13072e-014 -3.77691e-015
lhumerus -41.1856 -17.7991 91.3812
lradius 28.4872
lwrist 46.4904
lhand -31.0221 -3.16843
lfingers 7.12502
lthumb -4.30449 26.7678
rfemur -39.5829 16.7811 19.7911
rtibia 36.4291
rfoot -12.7668 -2.89281
rtoes -9.13353
lfemur -16.574 -10.3807 -18.5195
ltibia 18.6509
lfoot -14.1958 13.2614
ltoes -29.1856
1426
root 10.1373 15.7468 5.73884 20.1941 -14.6887 -4.97949
lowerback -21.1189 0.627924 1.35361
upperback -6.50519 0.380818 1.46031
thorax 4.7251 0.16509 0.884149
lowerneck -22.8713 3.00186 4.18732
upperneck 27.2196 1.99764 2.12838
head 12.9612 1.61512 0.472707
rclavicle 1.66979e-014 -1.61016e-014
rhumerus -38.6797 -6.54983 -75.5692
rradius 29.5542
rwrist -0.255608
rhand -15.0205 -14.7448
rfingers 7.12502
rthumb 11.1449 -44.4289
lclavicle 1.66979e-014 -1.61016e-014
lhumerus -40.979 -17.7129 91.3052
lradius 28.6039
lwrist 46.4502
lhand -31.1901 -3.18859
lfingers 7.12502
lthumb -4.46666 26.7443
rfemur -39.581 16.7822 19.7821
rtibia 36.4286
rfoot -12.7611 -2.93137
rtoes -9.16773
lfemur -16.5863 -10.3752 -18.517
ltibia 18.6503
lfoot -14.2121 13.2163
ltoes -29.1889
1427
root 10.1381 15.747 5.73887 20.196 -14.6528 -4.97752
lowerback -21.1392 0.641318 1.38968
upperback -6.5283 0.39161 1.44542
thorax 4.71085 0.170146 0.850357
lowerneck -22.9954 3.06513 4.31893
upperneck 27.2478 2.05051 2.06523
head 13.0018 1.64429 0.438317
rclavicle 4.61305e-014 7.7526e-015
rhumerus -38.588 -6.30052 -75.791
rradius 29.8004
rwrist -0.421333
rhand -14.9862 -14.809
rfingers 7.12502
rthumb 11.178 -44.4912
lclavicle 4.61305e-014 7.7526e-015
lhumerus -40.7849 -17.6533 91.243
lradius 28.7371
lwrist 46.4373
lhand -31.3967 -3.28945
lfingers 7.12502
lthumb -4.66623 26.6392
rfemur -39.579 16.7879 19.7723
rtibia 36.4268
rfoot -12.7552 -2.9742
rtoes -9.18027
lfemur -16.5997 -10.3697 -18.5131
ltibia 18.6514
lfoot -14.2283 13.1717
ltoes -29.1966
